{"title":"Prometheus.2012.HD.CAM.NEW.SOURCE.XViD-26K","uid":7364240,"size":1719412742,"categoryP":"video","categoryS":"movies","magnet":"?xt=urn:btih:cc82aafb22f5d851ea4966036fa05e6fced91f5b&amp;dn=Prometheus.2012.HD.CAM.NEW.SOURCE.XViD-26K&amp;tr=udp%3A%2F%2Ftracker.openbittorrent.com%3A80&amp;tr=udp%3A%2F%2Fopen.demonii.com%3A1337&amp;tr=udp%3A%2F%2Ftracker.coppersurfer.tk%3A6969&amp;tr=udp%3A%2F%2Fexodus.desync.com%3A6969","seeders":0,"leechers":0,"uploader":"crazy-torrent","files":2,"time":1340054570,"description":" &lt;a href=&quot; http://www.scenespeeds.com/&quot; rel=&quot;nofollow&quot; target=&quot;_NEW&quot;&gt; http://www.scenespeeds.com/&lt;/a&gt;\t\n\n\n\n\n\n\nPrometheus.2012.HD.CAM.NEW.SOURCE.XViD-26K \n\nGeneral \nComplete name: Prometheus.2012.HDCAM.XViD-26k.avi \nFormat: AVI \nFormat/Info: Audio Video Interleave \nFile size: 1.60 GiB \nDuration: 1h 49mn \nOverall bit rate: 2 085 Kbps \nWriting application: VirtualDubMod 1.5.10.2 (build 2540/release) \nWriting library: VirtualDub build 32842/release \n\nVideo \nID: 0 \nFormat: MPEG-4 Visual \nFormat profile: Advanced Simple@L5 \nFormat settings, BVOP: Yes \nFormat settings, QPel: No \nFormat settings, GMC: No warppoints \nFormat settings, Matrix: Default (H.263) \nMuxing mode: Packed bitstream \nCodec ID: XVID \nCodec ID/Hint: XviD \nDuration: 1h 49mn \nBit rate: 1 947 Kbps \nWidth: 720 pixels \nHeight: 332 pixels \nDisplay aspect ratio: 2.2:1 \nFrame rate: 25.000 fps \nColor space: YUV \nChroma subsampling: 4:2:0 \nBit depth: 8 bits \nScan type: Progressive \nCompression mode: Lossy \nBits/(Pixel*Frame): 0.326 \nStream size: 1.50 GiB (93%) \nWriting library: XviD 1.2.1 (UTC 2008-12-04) \n\nAudio \nID: 1 \nFormat: MPEG Audio \nFormat version: Version 1 \nFormat profile: Layer 3 \nCodec ID: 55 \nCodec ID/Hint: MP3 \nDuration: 1h 49mn \nBit rate mode: Constant \nBit rate: 128 Kbps \nChannel(s): 2 channels \nSampling rate: 44.1 KHz \nCompression mode: Lossy \nVideo delay: 2ms \nStream size: 101 MiB (6%) \nAlignment: Split accross interleaves \nInterleave, duration: 40 ms (1.00 video frame) \nInterleave, preload duration: 500 ms \n\n\n\n\n\n &lt;a href=&quot; http://www.scenespeeds.com/&quot; rel=&quot;nofollow&quot; target=&quot;_NEW&quot;&gt; http://www.scenespeeds.com/&lt;/a&gt;\t\n","torrent":{"xt":"urn:btih:cc82aafb22f5d851ea4966036fa05e6fced91f5b","amp;dn":"Prometheus.2012.HD.CAM.NEW.SOURCE.XViD-26K","amp;tr":["udp%3A%2F%2Ftracker.openbittorrent.com%3A80","udp%3A%2F%2Fopen.demonii.com%3A1337","udp%3A%2F%2Ftracker.coppersurfer.tk%3A6969","udp%3A%2F%2Fexodus.desync.com%3A6969"],"infoHash":"cc82aafb22f5d851ea4966036fa05e6fced91f5b","infoHashBuffer":{"type":"Buffer","data":[204,130,170,251,34,245,216,81,234,73,102,3,111,160,94,111,206,217,31,91]},"announce":[],"urlList":[]}}